<svg id="Layer_1" data-name="Layer 1" xmlns="http://www.w3.org/2000/svg" viewBox="0 0 792 792"><defs><style>.cls-1{fill:transparent;}.cls-2{fill:#e1dfe0;}.cls-3{fill:#30e7de;}.cls-4{fill:#2fe7de;}.cls-5{fill:#020303;}.cls-6{fill:#31e7df;}.cls-7{fill:#2de3da;}.cls-8{fill:#2ddcd4;}.cls-9{fill:#2de5dc;}.cls-10{fill:#030a0a;}.cls-11{fill:#030808;}.cls-12{fill:#040808;}.cls-13{fill:#030707;}</style></defs><path class="cls-1" d="M-90,0H702V792H-90ZM451.22,395.41c-1.28-.07-2.54-.19-3.8-.19q-12.94,0-25.88,0-12.36,0-24.73,0c-4.51,0-4,.2-5,3.64a101.12,101.12,0,0,1-11.25,25.72,94.63,94.63,0,0,1-22.86,25.32,100.81,100.81,0,0,1-21.59,12.56c-10.89,4.66-22.27,6.85-33.93,7.71-8.74.64-17.4-.73-25.92-2.65a94.09,94.09,0,0,1-27.07-10.79A96.45,96.45,0,0,1,205,398.83a105.22,105.22,0,0,1-3.6-23.88,94.69,94.69,0,0,1,3.11-25.89,93.28,93.28,0,0,1,13-29.48,95.06,95.06,0,0,1,18.67-20.88,91.82,91.82,0,0,1,24.61-14.9c5.7-2.25,11.57-4.07,17.54-6.13V218.9a151.73,151.73,0,0,0-55.63,18.69c-32,18.19-54.56,44.69-68.32,78.76h-4.16c-9.27,0-18.54.1-27.81-.06a14.34,14.34,0,0,0-8.25,2.8c-2.79,1.84-4.46,7.48-3.48,10.76,1.68,5.65,5.06,8.16,11,8.17,7.34,0,14.68,0,22,0,2.89,0,3.73.66,3.42,2.87-.43,3.13-1.17,6.21-1.81,9.48h-4.61c-15.07,0-30.14,0-45.2,0a58.29,58.29,0,0,0-8,.72c-4.44.64-6.85,3.63-8.36,7.59s0,7,2.43,9.9c2.83,3.4,6.64,4.14,10.74,4.14,15.71,0,31.42,0,47.14,0,1.47,0,3,.14,4.62.23,0,4,.31,7.59-.23,11.39H61.2c-1,0-2.07-.05-3.09,0-4.66.3-9.35,3.84-10.5,7.87-2.09,7.34,2.76,13.77,10.44,13.77q40.56,0,81.13,0a12.36,12.36,0,0,1,3.45.11c.83.24,2,1.11,2.07,1.77a44,44,0,0,1-.15,10.49H140c-14.55,0-29.11,0-43.66,0a82.85,82.85,0,0,0-9.56.77c-4.34.52-9.65,7.95-7.81,12.79,2.08,5.49,6.07,8.77,12.2,8.78q24.53,0,49.06,0c1.48,0,3,.14,4.63.23,0,4,.33,7.57-.23,11.15-1.13.1-1.89.23-2.65.23-6.05,0-12.1-.06-18.15,0-6.57.11-11.34,4.89-11.33,11.18,0,5.68,5.21,10.45,11.44,10.47h17.77c1.49,0,3.05.12,3.12,2,.12,3.3,0,6.6,0,10.34h-4.65c-9.91,0-19.83-.12-29.74.06-3.28.06-6.72.09-9.65,2a11,11,0,0,0-.23,18.07,12.91,12.91,0,0,0,7.62,2.26q16.23-.06,32.45,0c1.35,0,2.7.16,4.22.25-.05,4,.33,7.59-.29,11.37H140c-16.09,0-32.19,0-48.29,0a16.24,16.24,0,0,0-8.43,2.29c-3.21,1.87-5.35,7.53-4.3,11.12,1.66,5.67,5.08,8.28,11,8.29q24.92,0,49.84,0a8.8,8.8,0,0,1,3.05.14c.8.31,1.86,1.24,1.9,1.95.2,3.28.09,6.59.09,10.28h-5.09q-38.06,0-76.11,0a42.23,42.23,0,0,0-8.4.78c-6.42,1.34-11.18,10-5.94,16.77,2.85,3.7,6.78,4.82,11.23,4.81H140.1c1.49,0,3,.14,4.73.22-.1,4,.46,7.52-.44,11.41H91.81c-1,0-2.07-.06-3.09,0-7.52.65-12.29,9.26-9.13,15.33,2.12,4.08,5.29,6.37,10.13,6.34,16.61-.09,33.23,0,49.84,0a10,10,0,0,1,3.06.1c.83.28,2,1.11,2.08,1.77a43.08,43.08,0,0,1-.16,10.5h-4.19c-5.28,0-10.56-.08-15.84,0a28.57,28.57,0,0,0-6.45.82c-4.24,1.07-8.22,6.71-7.89,10.83.45,5.48,5.86,10.63,11.4,10.69,6.44.06,12.88,0,19.31,0,1.24,0,2.47.16,3.74.25.65,5.91-.13,11.5,1,17.26a17,17,0,0,0,2.82-2.81c15-15.07,30-30.15,45.1-45.1a9.9,9.9,0,0,0,3.21-7.76q-.17-55.89-.06-111.76c0-1.48.1-3,.18-5.19,2.82,2,5.07,3.44,7.11,5.13a134.36,134.36,0,0,0,26.64,16.84,139.38,139.38,0,0,0,34.82,12A167.45,167.45,0,0,0,289,527.31c8.56.44,17.21.87,25.79-.56,5.92-1,11.95-1.48,17.8-2.78a152.66,152.66,0,0,0,45-17.76,140,140,0,0,0,28.71-21.88c4.86-4.93,9.42-10.18,13.94-15.43,7.17-8.32,12.74-17.76,17.61-27.54a151,151,0,0,0,12.76-37.06C451.09,401.49,452.34,398.66,451.22,395.41ZM298.73,137.58c.9.09,1.52.17,2.14.2a250.39,250.39,0,0,1,36,4c30.51,5.77,59.27,16.24,85.9,32.33,30.69,18.55,56.39,42.32,75.43,72.88C521.94,285,533.62,326.74,535,371.45c0,1.11.18,2.21.27,3.24,5.93.68,20.21.47,22.88-.29,2.34-150-125.6-265-259.42-261.08Zm-.05,36.29c7.15.62,14,.92,20.7,1.83,30.09,4.05,58.35,13.51,84.4,29.22,22.89,13.8,42.58,31.21,58,53.1,22.1,31.3,33.52,66.44,36.38,104.5.31,4.06.5,8.13.74,12.24h25.56a7.39,7.39,0,0,0,.41-1.32c.08-1.16.11-2.32.13-3.48A190,190,0,0,0,517.65,315c-11.48-41.41-33.47-76.44-64.53-105.9-27.18-25.78-59.08-43.2-95.1-53.18a213,213,0,0,0-55.21-8.13c-1.35,0-2.7.12-4.13.18Zm.09,36.81c44.73,1.28,83.41,16.8,114.82,48.69s46.37,70.81,47,115.4H490c.09-1.62.21-3,.23-4.39.31-17-2.48-33.62-7.32-49.88-8.34-28-22.65-52.64-42.15-74.33a189.47,189.47,0,0,0-78.5-52.46,196.92,196.92,0,0,0-52.75-10.9c-3.54-.24-7.11,0-10.75,0ZM242.9,372.8c-.36,30.63,25.39,55.95,56.06,55.92,27.74,0,55.71-22.1,55.88-56.23a56,56,0,0,0-56.18-55.93C264.62,316.91,242.24,345,242.9,372.8Zm206.91,2c2.14-30.67-10.09-77.61-45-112-29.37-28.92-64.73-43.68-106-45.45v26.38c34.69,2.69,65.1,15,89.8,39.79,25,25.1,35.36,56.37,36.93,91.25Zm-151-94.1c24.77,2,46.17,11.28,63.63,29s26.36,39.55,27.94,64.19c7.33.72,25.1.45,28-.48-1.75-33.58-15.12-61.9-39.24-85.11-22.33-21.48-49.33-32.36-80.37-34.44Zm81.35,94c1.36-19.6-8.12-46.79-30.79-65.85-15.72-13.22-39.92-20-50.8-18.06.12,4-.21,8.08.18,12.13,19.35,1.17,35.6,8.23,48.66,22.09s19.26,30.67,19.56,49.92c3.68,0,7,0,10.33,0C378.15,375,379,374.86,380.13,374.77Z" transform="translate(90)"/><path class="cls-2" d="M451.22,395.41c1.12,3.25-.13,6.08-.7,8.89a151,151,0,0,1-12.76,37.06c-4.87,9.78-10.44,19.22-17.61,27.54-4.52,5.25-9.08,10.5-13.94,15.43a140,140,0,0,1-28.71,21.88,152.66,152.66,0,0,1-45,17.76c-5.85,1.3-11.88,1.79-17.8,2.78-8.58,1.43-17.23,1-25.79.56a167.45,167.45,0,0,1-23.51-3.37,139.38,139.38,0,0,1-34.82-12A134.36,134.36,0,0,1,204,495.06c-2-1.69-4.29-3.11-7.11-5.13-.08,2.23-.18,3.71-.18,5.19q0,55.88.06,111.76a9.9,9.9,0,0,1-3.21,7.76c-15.12,15-30.1,30-45.1,45.1a17,17,0,0,1-2.82,2.81c-1.13-5.76-.35-11.35-1-17.26-1.27-.09-2.5-.24-3.74-.25-6.43,0-12.87,0-19.31,0-5.54-.06-10.95-5.21-11.4-10.69-.33-4.12,3.65-9.76,7.89-10.83a28.57,28.57,0,0,1,6.45-.82c5.28-.12,10.56,0,15.84,0h4.19a43.08,43.08,0,0,0,.16-10.5c0-.66-1.25-1.49-2.08-1.77a10,10,0,0,0-3.06-.1c-16.61,0-33.23-.06-49.84,0-4.84,0-8-2.26-10.13-6.34-3.16-6.07,1.61-14.68,9.13-15.33,1-.09,2.06,0,3.09,0h52.58c.9-3.89.34-7.44.44-11.41-1.75-.08-3.24-.21-4.73-.22H60.52c-4.45,0-8.38-1.11-11.23-4.81-5.24-6.76-.48-15.43,5.94-16.77a42.23,42.23,0,0,1,8.4-.78q38.06-.09,76.11,0h5.09c0-3.69.11-7-.09-10.28,0-.71-1.1-1.64-1.9-1.95a8.8,8.8,0,0,0-3.05-.14q-24.93,0-49.84,0c-5.93,0-9.35-2.62-11-8.29-1-3.59,1.09-9.25,4.3-11.12a16.24,16.24,0,0,1,8.43-2.29c16.1.07,32.2,0,48.29,0h4.59c.62-3.78.24-7.33.29-11.37-1.52-.09-2.87-.25-4.22-.25q-16.22,0-32.45,0a12.91,12.91,0,0,1-7.62-2.26,11,11,0,0,1,.23-18.07c2.93-1.92,6.37-1.95,9.65-2,9.91-.18,19.83-.06,29.74-.06h4.65c0-3.74.09-7,0-10.34-.07-1.92-1.63-2-3.12-2H123.9c-6.23,0-11.44-4.79-11.44-10.47,0-6.29,4.76-11.07,11.33-11.18,6-.09,12.1,0,18.15,0,.76,0,1.52-.13,2.65-.23.56-3.58.22-7.12.23-11.15-1.67-.09-3.15-.23-4.63-.23q-24.54,0-49.06,0c-6.13,0-10.12-3.29-12.2-8.78-1.84-4.84,3.47-12.27,7.81-12.79a82.85,82.85,0,0,1,9.56-.77c14.55-.08,29.11,0,43.66,0h4.59A44,44,0,0,0,144.7,408c0-.66-1.24-1.53-2.07-1.77a12.36,12.36,0,0,0-3.45-.11q-40.56,0-81.13,0c-7.68,0-12.53-6.43-10.44-13.77,1.15-4,5.84-7.57,10.5-7.87,1-.07,2.06,0,3.09,0h82.64c.54-3.8.18-7.35.23-11.39-1.67-.09-3.15-.23-4.62-.23-15.72,0-31.43,0-47.14,0-4.1,0-7.91-.74-10.74-4.14-2.43-2.92-3.9-6-2.43-9.9s3.92-7,8.36-7.59a58.29,58.29,0,0,1,8-.72c15.06-.07,30.13,0,45.2,0h4.61c.64-3.27,1.38-6.35,1.81-9.48.31-2.21-.53-2.86-3.42-2.87-7.34-.05-14.68,0-22,0-6,0-9.35-2.52-11-8.17-1-3.28.69-8.92,3.48-10.76a14.34,14.34,0,0,1,8.25-2.8c9.27.16,18.54.06,27.81.06h4.16c13.76-34.07,36.34-60.57,68.32-78.76a151.73,151.73,0,0,1,55.63-18.69v58.77c-6,2.06-11.84,3.88-17.54,6.13a91.82,91.82,0,0,0-24.61,14.9,95.06,95.06,0,0,0-18.67,20.88,93.28,93.28,0,0,0-13,29.48A94.69,94.69,0,0,0,201.35,375a105.22,105.22,0,0,0,3.6,23.88,96.45,96.45,0,0,0,44.25,57.89,94.09,94.09,0,0,0,27.07,10.79c8.52,1.92,17.18,3.29,25.92,2.65,11.66-.86,23-3.05,33.93-7.71a100.81,100.81,0,0,0,21.59-12.56,94.63,94.63,0,0,0,22.86-25.32,101.12,101.12,0,0,0,11.25-25.72c1-3.44.48-3.64,5-3.64q12.36,0,24.73,0,12.94,0,25.88,0C448.68,395.22,449.94,395.34,451.22,395.41Z" transform="translate(90)"/><path class="cls-3" d="M298.73,137.58V113.32c133.82-3.91,261.76,111.12,259.42,261.08-2.67.76-16.95,1-22.88.29-.09-1-.24-2.13-.27-3.24C533.62,326.74,521.94,285,498.23,247c-19-30.56-44.74-54.33-75.43-72.88-26.63-16.09-55.39-26.56-85.9-32.33a250.39,250.39,0,0,0-36-4C300.25,137.75,299.63,137.67,298.73,137.58Z" transform="translate(90)"/><path class="cls-4" d="M298.68,173.87V148c1.43-.06,2.78-.19,4.13-.18A213,213,0,0,1,358,155.94c36,10,67.92,27.4,95.1,53.18,31.06,29.46,53.05,64.49,64.53,105.9A190,190,0,0,1,525,370c0,1.16,0,2.32-.13,3.48a7.39,7.39,0,0,1-.41,1.32H498.93c-.24-4.11-.43-8.18-.74-12.24-2.86-38.06-14.28-73.2-36.38-104.5-15.45-21.89-35.14-39.3-58-53.1-26-15.71-54.31-25.17-84.4-29.22C312.65,174.79,305.83,174.49,298.68,173.87Z" transform="translate(90)"/><path class="cls-4" d="M298.77,210.68v-27.9c3.64,0,7.21-.21,10.75,0a196.92,196.92,0,0,1,52.75,10.9,189.47,189.47,0,0,1,78.5,52.46c19.5,21.69,33.81,46.32,42.15,74.33,4.84,16.26,7.63,32.85,7.32,49.88,0,1.38-.14,2.77-.23,4.39h-29.4c-.65-44.59-15.62-83.53-47-115.4S343.5,212,298.77,210.68Z" transform="translate(90)"/><path class="cls-5" d="M242.9,372.8c-.66-27.82,21.72-55.89,55.76-56.24a56,56,0,0,1,56.18,55.93c-.17,34.13-28.14,56.21-55.88,56.23C268.29,428.75,242.54,403.43,242.9,372.8Zm51.49-26.94h-4.1c-3.6,0-7.2-.07-10.8,0-6.65.15-11.31,4.44-11.42,11.08-.2,12.36-.08,24.71-.05,37.07a8.87,8.87,0,0,0,9.38,9c14.26-.32,28.54-.1,42.81-.11,6.12,0,9.39-3.08,9.42-9.1q.09-18.34,0-36.69c-.05-6.59-4.58-11-11.23-11.2-4-.1-8,0-12,0-1,0-1.94-.19-3.12-.31,0-2.94.1-5.63,0-8.31a4.41,4.41,0,0,0-4.32-4.53,4.46,4.46,0,0,0-4.47,4,17.33,17.33,0,0,0-.1,2.7C294.38,341.4,294.39,343.43,294.39,345.86ZM263.6,389.63v-26c-.9-.06-1.53-.13-2.17-.14-5.2-.06-6.61,1.33-6.64,6.57,0,4.12,0,8.24,0,12.35C254.79,389.4,256.16,390.54,263.6,389.63Zm70.58-25.89v26.07c.93,0,1.67.11,2.42.11,5,.05,6.16-1.05,6.18-6,0-4.48-.17-9,.05-13.46.29-5.77-1.73-7.39-7.25-7C335.21,363.53,334.85,363.62,334.18,363.74Z" transform="translate(90)"/><path class="cls-4" d="M449.81,374.82H425.5c-1.57-34.88-11.91-66.15-36.93-91.25-24.7-24.79-55.11-37.1-89.8-39.79V217.4c41.32,1.77,76.68,16.53,106.05,45.45C439.72,297.21,452,344.15,449.81,374.82Z" transform="translate(90)"/><path class="cls-4" d="M298.78,280.72v-26.8c31,2.08,58,13,80.37,34.44,24.12,23.21,37.49,51.53,39.24,85.11-2.94.93-20.71,1.2-28,.48-1.58-24.64-10.41-46.36-27.94-64.19S323.55,282.76,298.78,280.72Z" transform="translate(90)"/><path class="cls-6" d="M380.13,374.77c-1.11.09-2,.22-2.86.22-3.32,0-6.65,0-10.33,0-.3-19.25-6.47-36-19.56-49.92S318.07,304.16,298.72,303c-.39-4.05-.06-8.11-.18-12.13,10.88-2,35.08,4.84,50.8,18.06C372,328,381.49,355.17,380.13,374.77Z" transform="translate(90)"/><path class="cls-7" d="M294.39,345.86c0-2.43,0-4.46,0-6.49a17.33,17.33,0,0,1,.1-2.7,4.46,4.46,0,0,1,4.47-4,4.41,4.41,0,0,1,4.32,4.53c.12,2.68,0,5.37,0,8.31,1.18.12,2.15.3,3.12.31,4,0,8-.06,12,0,6.65.16,11.18,4.61,11.23,11.2q.12,18.35,0,36.69c0,6-3.3,9.1-9.42,9.1-14.27,0-28.55-.21-42.81.11a8.87,8.87,0,0,1-9.38-9c0-12.36-.15-24.71.05-37.07.11-6.64,4.77-10.93,11.42-11.08,3.6-.08,7.2,0,10.8,0ZM291,368.12a5.25,5.25,0,0,0-5.17-5.52,5.54,5.54,0,0,0-5.61,5.2,5.71,5.71,0,0,0,5.28,5.6A5.49,5.49,0,0,0,291,368.12ZM312,362.6a5.48,5.48,0,0,0-5.36,5.43,5.7,5.7,0,0,0,5.5,5.39,5.54,5.54,0,0,0,5.28-5.53A5.28,5.28,0,0,0,312,362.6Zm-30.34,27h8.24v-3.74h-8.24ZM295,385.87v3.73H303v-3.73Zm21.34,0h-8.24v3.7h8.24Z" transform="translate(90)"/><path class="cls-8" d="M263.6,389.63c-7.44.91-8.81-.23-8.81-7.23,0-4.11,0-8.23,0-12.35,0-5.24,1.44-6.63,6.64-6.57.64,0,1.27.08,2.17.14Z" transform="translate(90)"/><path class="cls-9" d="M334.18,363.74c.67-.12,1-.21,1.4-.24,5.52-.43,7.54,1.19,7.25,7-.22,4.48,0,9-.05,13.46,0,4.95-1.17,6.05-6.18,6-.75,0-1.49-.07-2.42-.11Z" transform="translate(90)"/><path class="cls-10" d="M291,368.12a5.49,5.49,0,0,1-5.5,5.28,5.71,5.71,0,0,1-5.28-5.6,5.54,5.54,0,0,1,5.61-5.2A5.25,5.25,0,0,1,291,368.12Z" transform="translate(90)"/><path class="cls-10" d="M312,362.6a5.28,5.28,0,0,1,5.42,5.29,5.54,5.54,0,0,1-5.28,5.53,5.7,5.7,0,0,1-5.5-5.39A5.48,5.48,0,0,1,312,362.6Z" transform="translate(90)"/><path class="cls-11" d="M281.63,389.6v-3.74h8.24v3.74Z" transform="translate(90)"/><path class="cls-12" d="M295,385.87H303v3.73H295Z" transform="translate(90)"/><path class="cls-13" d="M316.3,385.88v3.7h-8.24v-3.7Z" transform="translate(90)"/></svg>
